<svg xmlns="http://www.w3.org/2000/svg" width="128" height="24" viewBox="0 0 128 24">
  <g id="Group_7" data-name="Group 7" transform="translate(-541.965 -934)">
    <path id="Path_31" data-name="Path 31" d="M541.965,956.836V934.775a.739.739,0,0,1,.229-.548.756.756,0,0,1,.553-.226h8.9a11.977,11.977,0,0,1,8.381,2.967,10.616,10.616,0,0,1,2.675,3.838,14.188,14.188,0,0,1,0,10.014,10.577,10.577,0,0,1-2.675,3.856,11.133,11.133,0,0,1-3.734,2.193,13.886,13.886,0,0,1-4.647.741h-8.9a.751.751,0,0,1-.553-.226A.734.734,0,0,1,541.965,956.836Zm7.24-5.161h2.447a8.408,8.408,0,0,0,1.891-.225,4.337,4.337,0,0,0,1.761-.855,4.6,4.6,0,0,0,1.288-1.773,9.048,9.048,0,0,0,0-5.967,4.528,4.528,0,0,0-1.3-1.773,4.446,4.446,0,0,0-1.762-.855,8.2,8.2,0,0,0-1.874-.226H549.2a.76.76,0,0,0-.555.226.74.74,0,0,0-.228.547V950.9a.742.742,0,0,0,.228.548A.758.758,0,0,0,549.2,951.674Z" transform="translate(0 0)"/>
    <path id="Path_32" data-name="Path 32" d="M562.2,934.8a.773.773,0,0,1,.779-.775h4.9a.752.752,0,0,1,.551.226.742.742,0,0,1,.228.549v13.064a4.666,4.666,0,0,0,.409,2.081,3.634,3.634,0,0,0,1.016,1.29,3.784,3.784,0,0,0,1.294.661,4.086,4.086,0,0,0,2.488,0,3.613,3.613,0,0,0,1.277-.661,3.746,3.746,0,0,0,1-1.29,4.666,4.666,0,0,0,.409-2.081V934.8a.745.745,0,0,1,.227-.549.756.756,0,0,1,.552-.226h4.9a.752.752,0,0,1,.551.226.742.742,0,0,1,.228.549v13.064a11.324,11.324,0,0,1-.733,4.161,8.858,8.858,0,0,1-2.1,3.194,9.506,9.506,0,0,1-3.289,2.049,12.918,12.918,0,0,1-8.531,0,9.5,9.5,0,0,1-3.289-2.049,9.044,9.044,0,0,1-2.117-3.194,11.1,11.1,0,0,1-.748-4.161Z" transform="translate(2.945 0.004)"/>
    <path id="Path_33" data-name="Path 33" d="M601.236,957.609H582.777a.762.762,0,0,1-.555-.224.743.743,0,0,1-.229-.548v-3.606a1.828,1.828,0,0,1,.163-.708,2.987,2.987,0,0,1,.358-.643l9.98-11.043a.639.639,0,0,0,.131-.547.375.375,0,0,0-.424-.29h-9.425a.777.777,0,0,1-.783-.778v-4.442a.779.779,0,0,1,.783-.779h18.459a.747.747,0,0,1,.57.226.774.774,0,0,1,.212.548v3.645a2.016,2.016,0,0,1-.147.709,2.57,2.57,0,0,1-.343.644l-9.98,11.1a.617.617,0,0,0-.13.533.35.35,0,0,0,.391.273h9.425a.75.75,0,0,1,.57.226.773.773,0,0,1,.212.548v4.386a.769.769,0,0,1-.212.547A.742.742,0,0,1,601.236,957.609Z" transform="translate(5.82 0)"/>
    <path id="Path_34" data-name="Path 34" d="M620.3,957.609H601.845a.763.763,0,0,1-.555-.224.743.743,0,0,1-.229-.548v-3.606a1.828,1.828,0,0,1,.163-.708,2.982,2.982,0,0,1,.358-.643l9.98-11.043a.639.639,0,0,0,.131-.547.375.375,0,0,0-.424-.29h-9.425a.777.777,0,0,1-.783-.778v-4.442a.779.779,0,0,1,.783-.779H620.3a.747.747,0,0,1,.57.226.774.774,0,0,1,.212.548v3.645a2.016,2.016,0,0,1-.147.709,2.572,2.572,0,0,1-.343.644l-9.98,11.1a.617.617,0,0,0-.13.533.35.35,0,0,0,.391.273H620.3a.75.75,0,0,1,.57.226.773.773,0,0,1,.212.548v4.386a.769.769,0,0,1-.212.547A.742.742,0,0,1,620.3,957.609Z" transform="translate(8.593 0)"/>
    <path id="Path_35" data-name="Path 35" d="M638.375,952.449v4.386a.738.738,0,0,1-.229.547.755.755,0,0,1-.554.226H621.318a.743.743,0,0,1-.571-.226.769.769,0,0,1-.212-.547V934.775a.774.774,0,0,1,.212-.548.747.747,0,0,1,.571-.226h4.892a.762.762,0,0,1,.555.226.742.742,0,0,1,.228.548V950.9a.774.774,0,0,0,.212.548.746.746,0,0,0,.571.225h9.816a.763.763,0,0,1,.554.226A.742.742,0,0,1,638.375,952.449Z" transform="translate(11.395 0)"/>
    <path id="Path_36" data-name="Path 36" d="M644.34,940.708v1.355a.743.743,0,0,0,.229.548.759.759,0,0,0,.555.225h8.838a.76.76,0,0,1,.555.226.743.743,0,0,1,.229.548v4.451a.743.743,0,0,1-.229.548.759.759,0,0,1-.555.225h-8.838a.76.76,0,0,0-.555.226.743.743,0,0,0-.229.547v1.226a.743.743,0,0,0,.229.548.76.76,0,0,0,.555.226h10.143a.758.758,0,0,1,.553.225.743.743,0,0,1,.229.548v4.451a.739.739,0,0,1-.229.547.755.755,0,0,1-.553.226h-16.6a.754.754,0,0,1-.555-.226.739.739,0,0,1-.229-.547V934.775a.743.743,0,0,1,.229-.548.758.758,0,0,1,.555-.226h16.6a.759.759,0,0,1,.553.226.743.743,0,0,1,.229.548v4.386a.739.739,0,0,1-.229.547.754.754,0,0,1-.553.226H645.124a.76.76,0,0,0-.555.226A.743.743,0,0,0,644.34,940.708Z" transform="translate(13.916 0)"/>
  </g>
</svg>
